<svg width="98" height="98" viewBox="0 0 98 98" fill="none" xmlns="http://www.w3.org/2000/svg">
<path fill-rule="evenodd" clip-rule="evenodd" d="M37.6952 36.691L47.5247 27.8085C52.0984 23.6755 58.257 21.7608 64.3678 22.5719L77.3703 24.298L95.4184 14.5428C96.5839 13.9126 98 14.7568 98 16.0823V49.2493C98 51.5079 96.9108 53.6277 95.074 54.942L82.9199 63.639L69.7663 52.6022C72.4087 51.6651 74.6655 50.1197 76.5275 48.1886C78.2047 46.4493 78.1543 43.6796 76.4148 42.0024C74.676 40.3252 71.9061 40.3756 70.2289 42.115C68.927 43.4652 67.4224 44.3325 65.6618 44.6771C64.1276 44.9775 62.1741 44.9238 59.7177 44.1709L56.5917 41.548L47.8802 48.5981C44.458 51.3677 39.4264 50.7758 36.7403 47.2877C34.245 44.0474 34.6609 39.433 37.6952 36.691ZM31.8286 30.1988L38.8865 23.8209C35.8901 23.0034 32.7154 22.8359 29.579 23.3789L16.7301 25.6036L2.63529 18.0181C1.4441 17.377 0 18.2398 0 19.5925L0.000143594 49.2463C0.00015475 51.6114 1.1694 53.8235 3.12361 55.1557L41.3081 81.1853C46.2512 84.5551 52.7694 84.4928 57.647 81.0285L75.1863 68.5721L56.4912 52.8856L53.3847 55.3997C46.1417 61.2613 35.4927 60.0087 29.8077 52.6262C24.5265 45.7682 25.4065 36.0023 31.8286 30.1988Z" fill="#01C38E"/>
</svg>
