<svg width="1386" height="761" viewBox="0 0 1386 761" fill="none" xmlns="http://www.w3.org/2000/svg">
<path fill-rule="evenodd" clip-rule="evenodd" d="M567.136 478.503L567.101 478.579C540.115 531.409 494.169 570.578 437.722 588.868C381.275 607.159 321.089 602.381 268.252 575.418C215.408 548.451 176.237 502.526 157.953 446.098C139.668 389.671 144.459 329.501 171.445 276.666C198.426 223.838 244.372 184.669 300.819 166.378C321.197 159.775 342.069 156.178 362.898 155.544C399.766 154.428 436.531 162.601 470.294 179.827C470.406 179.888 470.52 179.954 470.641 180.012L557.5 230.613L633 98.113L537.258 49.5746C451.305 5.59712 348.174 -4.82063 249.218 29.2258C59.1173 94.6363 -43.6734 301.865 19.0936 492.788C82.4275 685.422 289.7 790.771 482.864 728.179C579.73 696.79 654.697 629.116 697.594 545.081L958.944 33.0739L974.5 3.11199C876.43 -10.7209 795.784 38.4439 734.47 149.156L567.136 478.503Z" fill="#01C38E"/>
<path fill-rule="evenodd" clip-rule="evenodd" d="M769 672.822C834.211 727.679 918.377 760.726 1010.26 760.726C1217.37 760.726 1385.26 592.833 1385.26 385.726C1385.26 210.389 1264.93 63.1572 1102.34 22.1133L1023.94 175.162C1134.1 182.208 1221.26 273.788 1221.26 385.726C1221.26 502.258 1126.79 596.726 1010.26 596.726C944.668 596.726 886.065 566.795 847.365 519.845L769 672.822Z" fill="#01C38E"/>
</svg>
