<svg width="98" height="98" viewBox="0 0 98 98" fill="none" xmlns="http://www.w3.org/2000/svg">
<path fill-rule="evenodd" clip-rule="evenodd" d="M15.5276 0C10.8179 0 7 3.81795 7 8.52761V40.5224C7 45.232 10.8179 49.05 15.5276 49.05H82.4726C87.1822 49.05 91 45.232 91 40.5224V8.52761C91 3.81795 87.1822 0 82.4726 0H15.5276ZM34.4462 66.0892C34.4462 71.6611 29.9291 76.1782 24.3571 76.1782C18.7849 76.1782 14.2679 71.6611 14.2679 66.0892C14.2679 60.5171 18.7849 56 24.3571 56C29.9291 56 34.4462 60.5171 34.4462 66.0892ZM73.6778 76.1782C79.2498 76.1782 83.7669 71.6611 83.7669 66.0892C83.7669 60.5171 79.2498 56 73.6778 56C68.1057 56 63.5886 60.5171 63.5886 66.0892C63.5886 71.6611 68.1057 76.1782 73.6778 76.1782ZM24.3564 81.627C16.2532 81.627 9.52707 87.5231 8.2348 95.2595C7.98686 96.7435 9.23041 97.9727 10.735 97.9727H37.9779C39.4825 97.9727 40.726 96.7435 40.4781 95.2595C39.1859 87.5231 32.4598 81.627 24.3564 81.627ZM57.556 95.2595C58.8484 87.5231 65.5745 81.627 73.6778 81.627C81.781 81.627 88.5073 87.5231 89.7995 95.2595C90.0473 96.7435 88.8041 97.9727 87.2991 97.9727H60.0563C58.5517 97.9727 57.3082 96.7435 57.556 95.2595ZM56.864 14.8504C56.864 19.1933 53.3434 22.714 49.0004 22.714C44.6574 22.714 41.1368 19.1933 41.1368 14.8504C41.1368 10.5073 44.6574 6.98671 49.0004 6.98671C53.3434 6.98671 56.864 10.5073 56.864 14.8504ZM35.1747 39.5991C36.283 32.9647 42.051 27.9082 49 27.9082C55.949 27.9082 61.717 32.9647 62.8252 39.5991C63.0378 40.8717 61.9714 41.9256 60.6812 41.9256H37.3188C36.0285 41.9256 34.9621 40.8717 35.1747 39.5991Z" fill="#01C38E"/>
</svg>
