<svg width="94" height="98" viewBox="0 0 94 98" fill="none" xmlns="http://www.w3.org/2000/svg">
<path d="M80.5745 76.6482C80.5745 76.6482 76.0565 81.2951 74.9493 82.6574C73.1456 84.6729 71.0205 85.6247 68.2346 85.6247C67.9667 85.6247 67.681 85.6247 67.4131 85.606C62.1093 85.2515 57.1805 83.0867 53.4839 81.2391C43.3762 76.1256 34.5007 68.866 27.1253 59.6656C21.0357 51.9954 16.9641 44.9037 14.2675 37.2896C12.6067 32.6427 11.9995 29.0222 12.2674 25.607C12.446 23.4235 13.2496 21.6133 14.7318 20.0643L20.8214 13.7005C21.6965 12.842 22.6251 12.3755 23.5359 12.3755C24.6609 12.3755 25.5717 13.0847 26.1431 13.6818C26.161 13.7005 26.1789 13.7192 26.1967 13.7378C27.2861 14.8016 28.3218 15.9027 29.4112 17.0784C29.9648 17.6756 30.5362 18.2728 31.1077 18.8886L35.9829 23.9834C37.8759 25.9616 37.8759 27.7905 35.9829 29.7687C35.4651 30.3099 34.965 30.8511 34.4471 31.3736C32.9471 32.9786 34.1255 31.7471 32.5718 33.2028C32.5361 33.2401 32.5004 33.2588 32.4825 33.2961C30.9467 34.901 31.2325 36.4687 31.5539 37.5324C31.5718 37.5884 31.5896 37.6444 31.6075 37.7004C32.8754 40.9103 34.6612 43.9335 37.3756 47.5354L37.3935 47.554C42.3223 53.8992 47.519 58.8447 53.2515 62.6331C53.9836 63.1183 54.7337 63.5102 55.448 63.8835C56.0909 64.2194 56.6981 64.5366 57.2159 64.8726C57.2874 64.9099 57.3588 64.9659 57.4302 65.0032C58.0374 65.3204 58.6089 65.4698 59.1982 65.4698C60.6804 65.4698 61.609 64.4993 61.9126 64.1821L65.413 60.524C66.0202 59.8895 66.9846 59.1243 68.1096 59.1243C69.2168 59.1243 70.1276 59.8522 70.6812 60.4867C70.699 60.5054 70.699 60.5054 70.7169 60.524L80.5567 70.8069C82.3961 72.7105 80.5745 76.6482 80.5745 76.6482Z" stroke="#01C38E" stroke-width="7" stroke-linecap="round" stroke-linejoin="round"/>
</svg>
